<svg width="108" height="112" viewBox="0 0 108 112" fill="none" xmlns="http://www.w3.org/2000/svg">
<path d="M15.18 99.8334C14.8353 97.4043 14.6638 94.9536 14.6667 92.5001V85.1668H0V70.5001H14.6667V63.1668C14.6667 60.6734 14.8427 58.2241 15.18 55.8334H0V41.1668H19.6093C24.1045 31.7179 31.3684 23.8605 40.436 18.6388L32.736 10.9388L43.12 0.576782L55.462 12.9261C62.4171 11.4727 69.5976 11.4727 76.5527 12.9261L88.8947 0.576782L99.264 10.9535L91.564 18.6534C100.632 23.8705 107.898 31.7225 112.398 41.1668H132V55.8334H116.82C117.157 58.2314 117.333 60.6808 117.333 63.1668V70.5001H132V85.1668H117.333V92.5001C117.333 94.9934 117.157 97.4428 116.82 99.8334H132V114.5H112.391C108.23 123.283 101.662 130.704 93.4493 135.9C85.237 141.097 75.7183 143.856 66 143.856C56.2817 143.856 46.763 141.097 38.5507 135.9C30.3385 130.704 23.7701 123.283 19.6093 114.5H0V99.8334H15.18ZM44 55.8334V70.5001H88V55.8334H44ZM44 85.1668V99.8334H88V85.1668H44Z" fill="#00332C" fill-opacity="0.05"/>
</svg>
