<svg width="108" height="116" viewBox="0 0 108 116" 
fill="none" xmlns="http://www.w3.org/2000/svg">
<path d="M132 132.667C132 134.612 131.227 136.477 129.852 137.852C128.477 139.228 126.612 140 124.667 140H7.33333C5.38841 140 3.52315 139.228 2.14788 137.852C0.772617 136.477 5.81281e-07 134.612 5.81281e-07 132.667V54.3028C-0.000440424 53.1951 0.25006 52.1017 0.732697 51.1047C1.21533 50.1077 1.91757 49.2329 2.78667 48.5462L61.4533 2.2655C62.748 1.24243 64.3499 0.685913 66 0.685913C67.6501 0.685913 69.252 1.24243 70.5467 2.2655L129.213 48.5388C130.083 49.2264 130.786 50.1023 131.269 51.1007C131.752 52.0991 132.002 53.1939 132 54.3028V132.667ZM29.3333 74.0002C29.3333 83.7248 33.1964 93.0511 40.0728 99.9274C46.9491 106.804 56.2754 110.667 66 110.667C75.7246 110.667 85.0509 106.804 91.9273 99.9274C98.8036 93.0511 102.667 83.7248 102.667 74.0002H88C88 79.8349 85.6822 85.4307 81.5564 89.5565C77.4306 93.6823 71.8348 96.0002 66 96.0002C60.1652 96.0002 54.5694 93.6823 50.4436 89.5565C46.3178 85.4307 44 79.8349 44 74.0002H29.3333Z" fill="#00332C" fill-opacity="0.05"/>
</svg>
