<svg width="116" height="115" viewBox="0 0 116 115" fill="none" xmlns="http://www.w3.org/2000/svg">
<path d="M139.985 7.5001V22.1668C139.985 35.7812 134.577 48.838 124.95 58.4649C115.323 68.0918 102.266 73.5001 88.6519 73.5001H81.3185V80.8334H117.985V132.167C117.985 136.057 116.44 139.787 113.689 142.538C110.939 145.288 107.208 146.833 103.319 146.833H44.6519C40.762 146.833 37.0315 145.288 34.281 142.538C31.5304 139.787 29.9852 136.057 29.9852 132.167V80.8334H66.6519V58.8334C66.6519 45.219 72.0602 32.1622 81.687 22.5353C91.3139 12.9084 104.371 7.5001 117.985 7.5001H139.985ZM26.3185 0.166766C35.1183 0.159636 43.7911 2.26691 51.6065 6.31118C59.4219 10.3554 66.1512 16.2183 71.2279 23.4061C63.4836 33.5913 59.2993 46.0384 59.3185 58.8334V66.1668H55.6519C41.065 66.1668 27.0755 60.3721 16.761 50.0576C6.44648 39.7431 0.651855 25.7537 0.651855 11.1668V0.166766H26.3185Z" fill="#00332C" fill-opacity="0.25"/>
</svg>
