<svg width="30" height="31" viewBox="0 0 30 31" fill="none" xmlns="http://www.w3.org/2000/svg">
<path d="M29.4971 1.75013V4.75013C29.4971 7.5349 28.3908 10.2056 26.4217 12.1747C24.4526 14.1439 21.7818 15.2501 18.9971 15.2501H17.4971V16.7501H24.9971V27.2501C24.9971 28.0458 24.681 28.8088 24.1184 29.3714C23.5558 29.9341 22.7927 30.2501 21.9971 30.2501H9.99707C9.20142 30.2501 8.43836 29.9341 7.87575 29.3714C7.31314 28.8088 6.99707 28.0458 6.99707 27.2501V16.7501H14.4971V12.2501C14.4971 9.46535 15.6033 6.79464 17.5724 4.8255C19.5416 2.85637 22.2123 1.75013 24.9971 1.75013H29.4971ZM6.24707 0.250126C8.04703 0.248667 9.821 0.679701 11.4196 1.50694C13.0182 2.33417 14.3947 3.53339 15.4331 5.00363C13.849 7.08697 12.9931 9.63296 12.9971 12.2501V13.7501H12.2471C9.26338 13.7501 6.4019 12.5649 4.29212 10.4551C2.18233 8.34529 0.99707 5.48381 0.99707 2.50013V0.250126H6.24707Z" fill="#00332C"/>
</svg>
