<svg width="28" height="28" viewBox="0 0 28 28" fill="none" xmlns="http://www.w3.org/2000/svg">
<path d="M18.5 27.7501H15.5V23.2501H12.5V27.7501H9.5V24.7501H6.5V27.7501H2C1.60218 27.7501 1.22064 27.5921 0.93934 27.3108C0.658035 27.0295 0.5 26.6479 0.5 26.2501V21.7501H3.5V18.7501H0.5V15.7501H5V12.7501H0.5V9.75012H3.5V6.75012H0.5V2.25012C0.5 1.8523 0.658035 1.47077 0.93934 1.18946C1.22064 0.908157 1.60218 0.750122 2 0.750122H11C11.3978 0.750122 11.7794 0.908157 12.0607 1.18946C12.342 1.47077 12.5 1.8523 12.5 2.25012V15.7501H26C26.3978 15.7501 26.7794 15.9082 27.0607 16.1895C27.342 16.4708 27.5 16.8523 27.5 17.2501V26.2501C27.5 26.6479 27.342 27.0295 27.0607 27.3108C26.7794 27.5921 26.3978 27.7501 26 27.7501H21.5V24.7501H18.5V27.7501Z" fill="#00332C"/>
</svg>
