<svg width="108" height="108" viewBox="0 0 108 108" fill="none" xmlns="http://www.w3.org/2000/svg">
<path d="M88 132H73.3333V110H58.6667V132H44V117.333H29.3333V132H7.33333C5.38841 132 3.52315 131.228 2.14788 129.852C0.772617 128.477 0 126.612 0 124.667V102.667H14.6667V88.0001H0V73.3335H22V58.6668H0V44.0001H14.6667V29.3335H0V7.33346C0 5.38853 0.772617 3.52327 2.14788 2.14801C3.52315 0.772739 5.38841 0.00012207 7.33333 0.00012207H51.3333C53.2783 0.00012207 55.1435 0.772739 56.5188 2.14801C57.894 3.52327 58.6667 5.38853 58.6667 7.33346V73.3335H124.667C126.612 73.3335 128.477 74.1061 129.852 75.4813C131.227 76.8566 132 78.7219 132 80.6668V124.667C132 126.612 131.227 128.477 129.852 129.852C128.477 131.228 126.612 132 124.667 132H102.667V117.333H88V132Z" fill="#00332C" fill-opacity="0.05"/>
</svg>
