<svg width="31" height="28" viewBox="0 0 31 28" fill="none" xmlns="http://www.w3.org/2000/svg">
<path d="M30.9971 6.75012V10.5001C30.9971 13.086 29.9698 15.5659 28.1414 17.3944C26.3129 19.2229 23.8329 20.2501 21.2471 20.2501H17.4971V27.7501H14.4971V17.2501L14.5256 15.7501C14.7145 13.3013 15.8207 11.014 17.623 9.34545C19.4253 7.67689 21.791 6.75002 24.2471 6.75012H30.9971ZM6.99707 0.750122C9.20117 0.750062 11.3494 1.44331 13.1378 2.73171C14.9261 4.02011 16.2638 5.83839 16.9616 7.92912C15.8139 8.90198 14.8737 10.0957 14.1967 11.4393C13.5198 12.7829 13.12 14.2489 13.0211 15.7501H11.4971C8.7123 15.7501 6.04158 14.6439 4.07245 12.6747C2.10332 10.7056 0.99707 8.0349 0.99707 5.25012V0.750122H6.99707Z" fill="#00332C"/>
</svg>
