<svg width="116" height="108" viewBox="0 0 116 108" fill="none" xmlns="http://www.w3.org/2000/svg">
<path d="M147.319 29.3335V47.6668C147.319 60.3088 142.297 72.433 133.357 81.3722C124.418 90.3114 112.294 95.3335 99.6519 95.3335H81.3185V132H66.6519V80.6668L66.7912 73.3335C67.7148 61.3614 73.1229 50.1791 81.9342 42.0217C90.7455 33.8643 102.311 29.333 114.319 29.3335H147.319ZM29.9852 0.000122089C40.7608 -0.000170808 51.2634 3.38903 60.0063 9.68788C68.7492 15.9867 75.2892 24.8761 78.7005 35.0975C73.0899 39.8536 68.4931 45.6896 65.1836 52.2583C61.8741 58.8269 59.9194 65.9941 59.4359 73.3335H51.9852C38.3707 73.3335 25.3139 67.9251 15.687 58.2983C6.06017 48.6714 0.651855 35.6146 0.651855 22.0001V0.000122089H29.9852Z" fill="#00332C" fill-opacity="0.05"/>
</svg>
