<svg width="16" height="17" viewBox="0 0 16 17" fill="none" xmlns="http://www.w3.org/2000/svg">
<path d="M14 13.8333C14 14.0101 13.9298 14.1797 13.8047 14.3047C13.6797 14.4298 13.5101 14.5 13.3333 14.5H2.66667C2.48986 14.5 2.32029 14.4298 2.19526 14.3047C2.07024 14.1797 2 14.0101 2 13.8333V6.70933C1.99996 6.60863 2.02273 6.50923 2.06661 6.41859C2.11048 6.32796 2.17432 6.24843 2.25333 6.186L7.58667 1.97867C7.70436 1.88566 7.84999 1.83507 8 1.83507C8.15001 1.83507 8.29563 1.88566 8.41333 1.97867L13.7467 6.18533C13.8258 6.24784 13.8897 6.32747 13.9335 6.41823C13.9774 6.50899 14.0001 6.60852 14 6.70933V13.8333ZM4.66667 8.5C4.66667 9.38406 5.01786 10.2319 5.64298 10.857C6.2681 11.4821 7.11594 11.8333 8 11.8333C8.88405 11.8333 9.7319 11.4821 10.357 10.857C10.9821 10.2319 11.3333 9.38406 11.3333 8.5H10C10 9.03043 9.78929 9.53914 9.41421 9.91421C9.03914 10.2893 8.53043 10.5 8 10.5C7.46957 10.5 6.96086 10.2893 6.58579 9.91421C6.21071 9.53914 6 9.03043 6 8.5H4.66667Z" fill="#00473E"/>
</svg>
