<svg width="31" height="28" viewBox="0 0 31 28" fill="none" xmlns="http://www.w3.org/2000/svg">
<path d="M30.9971 6.5V10.25C30.9971 12.8359 29.9698 15.3158 28.1414 17.1443C26.3129 18.9728 23.8329 20 21.2471 20H17.4971V27.5H14.4971V17L14.5256 15.5C14.7145 13.0512 15.8207 10.7639 17.623 9.09532C19.4253 7.42677 21.791 6.4999 24.2471 6.5H30.9971ZM6.99707 0.5C9.20117 0.49994 11.3494 1.19318 13.1378 2.48159C14.9261 3.76999 16.2638 5.58827 16.9616 7.679C15.8139 8.65185 14.8737 9.84558 14.1967 11.1892C13.5198 12.5328 13.12 13.9988 13.0211 15.5H11.4971C8.7123 15.5 6.04158 14.3938 4.07245 12.4246C2.10332 10.4555 0.99707 7.78477 0.99707 5V0.5H6.99707Z" fill="#006155"/>
</svg>
