<svg width="28" height="31" viewBox="0 0 28 31" fill="none" xmlns="http://www.w3.org/2000/svg">
<path d="M3.605 21.2501C3.5345 20.7532 3.49941 20.252 3.5 19.7501V18.2501H0.5V15.2501H3.5V13.7501C3.5 13.2401 3.536 12.7391 3.605 12.2501H0.5V9.25013H4.511C5.43046 7.3174 6.91627 5.71022 8.771 4.64213L7.196 3.06713L9.32 0.947632L11.8445 3.47363C13.2671 3.17634 14.7359 3.17634 16.1585 3.47363L18.683 0.947632L20.804 3.07013L19.229 4.64513C21.0838 5.71226 22.5701 7.31835 23.4905 9.25013H27.5V12.2501H24.395C24.464 12.7406 24.5 13.2416 24.5 13.7501V15.2501H27.5V18.2501H24.5V19.7501C24.5 20.2601 24.464 20.7611 24.395 21.2501H27.5V24.2501H23.489C22.6379 26.0466 21.2944 27.5645 19.6146 28.6275C17.9348 29.6904 15.9878 30.2547 14 30.2547C12.0122 30.2547 10.0652 29.6904 8.38538 28.6275C6.7056 27.5645 5.36207 26.0466 4.511 24.2501H0.5V21.2501H3.605ZM9.5 12.2501V15.2501H18.5V12.2501H9.5ZM9.5 18.2501V21.2501H18.5V18.2501H9.5Z" fill="#00332C"/>
</svg>
