<svg width="28" height="30" viewBox="0 0 28 30" fill="none" xmlns="http://www.w3.org/2000/svg">
<path d="M27.5 27.7501C27.5 28.148 27.342 28.5295 27.0607 28.8108C26.7794 29.0921 26.3978 29.2501 26 29.2501H2C1.60218 29.2501 1.22064 29.0921 0.93934 28.8108C0.658035 28.5295 0.5 28.148 0.5 27.7501V11.7211C0.49991 11.4946 0.551149 11.2709 0.64987 11.067C0.748591 10.863 0.892229 10.6841 1.07 10.5436L13.07 1.07713C13.3348 0.867862 13.6625 0.754028 14 0.754028C14.3375 0.754028 14.6652 0.867862 14.93 1.07713L26.93 10.5421C27.108 10.6828 27.2517 10.8619 27.3505 11.0661C27.4492 11.2704 27.5003 11.4943 27.5 11.7211V27.7501ZM6.5 15.7501C6.5 17.7392 7.29018 19.6469 8.6967 21.0534C10.1032 22.4599 12.0109 23.2501 14 23.2501C15.9891 23.2501 17.8968 22.4599 19.3033 21.0534C20.7098 19.6469 21.5 17.7392 21.5 15.7501H18.5C18.5 16.9436 18.0259 18.0882 17.182 18.9321C16.3381 19.776 15.1935 20.2501 14 20.2501C12.8065 20.2501 11.6619 19.776 10.818 18.9321C9.97411 18.0882 9.5 16.9436 9.5 15.7501H6.5Z" fill="#00332C"/>
</svg>
