<svg width="30" height="28" viewBox="0 0 30 28" fill="none" xmlns="http://www.w3.org/2000/svg">
<path d="M30 10.7486V25.7501C30 26.1479 29.842 26.5295 29.5607 26.8108C29.2794 27.0921 28.8978 27.2501 28.5 27.2501H16.5V10.7486H30ZM13.5 19.7486V27.2501H1.5C1.10218 27.2501 0.720644 27.0921 0.43934 26.8108C0.158035 26.5295 0 26.1479 0 25.7501V19.7486H13.5ZM13.5 0.250122V16.7486H0V1.75012C0 1.3523 0.158035 0.970766 0.43934 0.689462C0.720644 0.408157 1.10218 0.250122 1.5 0.250122H13.5ZM28.5 0.250122C28.8978 0.250122 29.2794 0.408157 29.5607 0.689462C29.842 0.970766 30 1.3523 30 1.75012V7.74862H16.5V0.250122H28.5Z" fill="#00332C"/>
</svg>
