<svg width="116" height="108" viewBox="0 0 116 108" fill="none" xmlns="http://www.w3.org/2000/svg">
<path d="M147.333 51.8261V125.167C147.333 127.112 146.561 128.977 145.185 130.352C143.81 131.728 141.945 132.5 140 132.5H81.3332V51.8261H147.333ZM66.6665 95.8261V132.5H7.99984C6.05492 132.5 4.18965 131.728 2.81439 130.352C1.43912 128.977 0.666504 127.112 0.666504 125.167V95.8261H66.6665ZM66.6665 0.500122V81.1595H0.666504V7.83346C0.666504 5.88853 1.43912 4.02327 2.81439 2.64801C4.18965 1.27274 6.05492 0.500122 7.99984 0.500122H66.6665ZM140 0.500122C141.945 0.500122 143.81 1.27274 145.185 2.64801C146.561 4.02327 147.333 5.88853 147.333 7.83346V37.1595H81.3332V0.500122H140Z" fill="#00332C" fill-opacity="0.05"/>
</svg>
