<svg width="108" height="113" viewBox="0 0 108 113" fill="none" xmlns="http://www.w3.org/2000/svg">
<path d="M108.9 69.5701L103.708 64.3854L31.108 136.985H0V105.87L82.9693 22.8934L124.454 64.3781C125.829 65.7533 126.601 67.6182 126.601 69.5628C126.601 71.5073 125.829 73.3722 124.454 74.7474L72.5927 126.601L62.2233 116.232L108.893 69.5628L108.9 69.5701ZM114.077 2.16211L134.823 22.9008C136.198 24.276 136.97 26.1409 136.97 28.0854C136.97 30.03 136.198 31.8949 134.823 33.2701L124.447 43.6468L93.3313 12.5314L103.701 2.16211C105.076 0.787327 106.941 0.0150146 108.885 0.0150146C110.83 0.0150146 112.702 0.787327 114.077 2.16211Z" fill="#00332C" fill-opacity="0.05"/>
</svg>
