<svg width="29" height="29" viewBox="0 0 29 29" fill="none" xmlns="http://www.w3.org/2000/svg">
<path d="M22.775 14.9576L21.713 13.8971L6.863 28.7471H0.5V22.3826L17.471 5.41015L25.9565 13.8956C26.2377 14.1769 26.3957 14.5584 26.3957 14.9561C26.3957 15.3539 26.2377 15.7354 25.9565 16.0166L15.3485 26.6231L13.2275 24.5021L22.7735 14.9561L22.775 14.9576ZM23.834 1.16965L28.0775 5.41165C28.3587 5.69294 28.5167 6.0744 28.5167 6.47215C28.5167 6.86989 28.3587 7.25136 28.0775 7.53265L25.955 9.65515L19.5905 3.29065L21.7115 1.16965C21.9928 0.888442 22.3743 0.730469 22.772 0.730469C23.1697 0.730469 23.5527 0.888442 23.834 1.16965Z" fill="#00332C"/>
</svg>
